<?xml version="1.0" encoding="utf-8"?>
<!-- Generator: Adobe Illustrator 28.0.0, SVG Export Plug-In . SVG Version: 6.00 Build 0)  -->
<svg version="1.1" id="Layer_1" xmlns="http://www.w3.org/2000/svg" xmlns:xlink="http://www.w3.org/1999/xlink" x="0px" y="0px"
	 viewBox="0 0 100 100" style="enable-background:new 0 0 100 100;" xml:space="preserve">
<style type="text/css">
	.st0{fill:#146CF7;stroke:#231F20;stroke-miterlimit:10;}
	.st1{fill:#146CF7;stroke:#000000;stroke-miterlimit:10;}
</style>
<g>
	<path d="M19.4,67.3l-2.1-8.1h1.1l1,4.1c0.2,1,0.5,2,0.6,2.8h0c0.1-0.8,0.4-1.8,0.7-2.8l1.1-4.1h1.1l1,4.1c0.2,1,0.4,1.9,0.6,2.8h0
		c0.2-0.9,0.4-1.8,0.6-2.8l1.1-4.1h1.1l-2.3,8.1h-1.1l-1-4.2c-0.3-1-0.4-1.8-0.5-2.6h0c-0.1,0.8-0.3,1.6-0.6,2.6l-1.2,4.2H19.4z"/>
	<path d="M33.1,64.3c0,2.1-1.5,3.1-2.9,3.1c-1.6,0-2.8-1.2-2.8-3c0-1.9,1.3-3.1,2.9-3.1C31.9,61.3,33.1,62.5,33.1,64.3z M28.5,64.4
		c0,1.3,0.7,2.2,1.8,2.2c1,0,1.8-0.9,1.8-2.3c0-1-0.5-2.2-1.7-2.2C29,62.1,28.5,63.3,28.5,64.4z"/>
	<path d="M34.4,63.3c0-0.7,0-1.3,0-1.8h0.9l0,1.1h0c0.3-0.8,0.9-1.3,1.6-1.3c0.1,0,0.2,0,0.3,0v1c-0.1,0-0.2,0-0.4,0
		c-0.7,0-1.3,0.6-1.4,1.4c0,0.1,0,0.3,0,0.5v3.1h-1V63.3z"/>
	<path d="M38.4,58.7h1.1v8.5h-1.1V58.7z"/>
	<path d="M46.2,58.7v7c0,0.5,0,1.1,0,1.5h-0.9l0-1h0c-0.3,0.6-1,1.1-2,1.1c-1.4,0-2.5-1.2-2.5-2.9c0-1.9,1.2-3.1,2.6-3.1
		c0.9,0,1.5,0.4,1.8,0.9h0v-3.5H46.2z M45.2,63.8c0-0.1,0-0.3,0-0.4c-0.2-0.7-0.7-1.2-1.5-1.2c-1.1,0-1.7,1-1.7,2.2
		c0,1.2,0.6,2.1,1.7,2.1c0.7,0,1.4-0.5,1.5-1.3c0-0.1,0-0.3,0-0.5V63.8z"/>
	<path d="M55,67.3l-1-1.8c-0.4-0.7-0.7-1.1-0.9-1.6h0c-0.2,0.5-0.5,0.9-0.9,1.6l-1,1.8h-1.2l2.5-4.1l-2.4-4h1.2l1.1,1.9
		c0.3,0.5,0.5,0.9,0.7,1.4h0c0.2-0.5,0.4-0.9,0.7-1.4l1.1-1.9h1.2l-2.5,3.9l2.5,4.2H55z"/>
	<path d="M57.4,63.3c0-0.7,0-1.3,0-1.9h0.9l0,1h0c0.4-0.7,1.1-1.1,2.1-1.1c1.4,0,2.5,1.2,2.5,3c0,2.1-1.3,3.1-2.6,3.1
		c-0.8,0-1.4-0.3-1.8-0.9h0v3.2h-1V63.3z M58.4,64.9c0,0.2,0,0.3,0,0.4c0.2,0.7,0.8,1.2,1.6,1.2c1.1,0,1.8-0.9,1.8-2.2
		c0-1.2-0.6-2.2-1.7-2.2c-0.7,0-1.4,0.5-1.6,1.3c0,0.1-0.1,0.3-0.1,0.4V64.9z"/>
	<path d="M64.2,58.7h1.1v8.5h-1.1V58.7z"/>
	<path d="M72.3,64.3c0,2.1-1.5,3.1-2.9,3.1c-1.6,0-2.8-1.2-2.8-3c0-1.9,1.3-3.1,2.9-3.1C71.1,61.3,72.3,62.5,72.3,64.3z M67.7,64.4
		c0,1.3,0.7,2.2,1.8,2.2c1,0,1.8-0.9,1.8-2.3c0-1-0.5-2.2-1.7-2.2C68.2,62.1,67.7,63.3,67.7,64.4z"/>
	<path d="M73.6,63.3c0-0.7,0-1.3,0-1.8h0.9l0,1.1h0c0.3-0.8,0.9-1.3,1.6-1.3c0.1,0,0.2,0,0.3,0v1c-0.1,0-0.2,0-0.4,0
		c-0.7,0-1.3,0.6-1.4,1.4c0,0.1,0,0.3,0,0.5v3.1h-1V63.3z"/>
	<path d="M78,64.5c0,1.4,0.9,2,2,2c0.8,0,1.2-0.1,1.6-0.3l0.2,0.8c-0.4,0.2-1,0.4-1.9,0.4c-1.8,0-2.9-1.2-2.9-2.9
		c0-1.8,1-3.1,2.7-3.1c1.9,0,2.4,1.7,2.4,2.7c0,0.2,0,0.4,0,0.5H78z M81.1,63.8c0-0.7-0.3-1.7-1.5-1.7c-1.1,0-1.5,1-1.6,1.7H81.1z"
		/>
</g>
<g id="Map">
	<path class="st0" d="M79.4,57c-1-1.2-1.9-2.2-2.5-3c-1.9-2.3-2.4-3.1-2.7-3.8c-0.6-1.3-1-2.1-0.6-3.1c0.5-1.4,2.1-2.1,2.7-2.4
		c0.2-0.2,0.6-0.4,1.1-0.6c0.5-0.2,1-0.2,1.5-0.2c0.7,0,1.7,0.1,3,0.3c0.5,0.3,1.3,0.7,1.9,1.5c0.9,1.1,1.1,2.2,1.1,2.7
		c-0.1,0.4-0.3,0.9-0.6,1.6c-0.7,1.5-1.4,2.3-3.2,4.6C80.8,55.2,80.2,56,79.4,57z"/>
	<path class="st1" d="M81.7,48.6c0,1-1.1,1.8-2.4,1.8s-2.4-0.8-2.4-1.8c0-1,1.1-1.8,2.4-1.8S81.7,47.6,81.7,48.6"/>
</g>
<polygon class="st0" points="69.4,37.8 67.5,39.1 62.7,41 59.9,41.6 56.8,55.3 56.4,56.2 55.7,57 53.3,57.4 52.8,54.9 53.4,47.2 
	52.8,44.5 48,46.4 45.7,46.5 45.1,50 44.8,50.8 42.6,51.4 40,42.2 42.3,40.8 44.6,43.4 51.4,40.5 50.7,38.5 46.2,31.4 45.8,29.8 
	48.8,28.6 58.9,37.6 67.9,34.3 69.9,35.6 "/>
<g id="Map_00000152247531840094786120000015106433992832738978_">
	<path class="st0" d="M24.7,55.2c-1-1.2-1.9-2.2-2.5-3c-1.9-2.3-2.4-3.1-2.7-3.8c-0.6-1.3-1-2.1-0.6-3.1c0.5-1.4,2.1-2.1,2.7-2.4
		c0.2-0.2,0.6-0.4,1.1-0.6c0.5-0.2,1-0.2,1.5-0.2c0.7,0,1.7,0.1,3,0.3c0.5,0.3,1.3,0.7,1.9,1.5c0.9,1.1,1.1,2.2,1.1,2.7
		c-0.1,0.4-0.3,0.9-0.6,1.6c-0.7,1.5-1.4,2.3-3.2,4.6C26.1,53.4,25.5,54.2,24.7,55.2z"/>
	<path class="st1" d="M27,46.8c0,1-1.1,1.8-2.4,1.8s-2.4-0.8-2.4-1.8c0-1,1.1-1.8,2.4-1.8S27,45.8,27,46.8"/>
</g>
</svg>
